<svg id="ec1d2cc7-1f2b-42a2-82f4-e7cf59f8f3b5" data-name="Layer 1" xmlns="http://www.w3.org/2000/svg" width="139" height="125" viewBox="0 0 139 125">
  <title>Meta-Major-Icons</title>
  <rect width="139" height="125" style="fill: none"/>
  <g>
    <g>
      <path d="M3.26,47.36,4,45.45l8.69,3.24-.71,1.91Z"/>
      <path d="M6.95,43.77,7.83,42l.9.44A2.51,2.51,0,0,1,8.63,40a2.33,2.33,0,0,1,3.43-1l4.12,2-.89,1.81-3.55-1.75c-.85-.42-1.49-.23-1.83.46a1.23,1.23,0,0,0,.74,1.76L14.2,45.1l-.89,1.81Z"/>
      <path d="M12.63,36.63l-.44.71-1.4-.88.44-.71-.38-.24a2.34,2.34,0,0,1-1.15-1.4,2.21,2.21,0,0,1,.39-1.67,4.43,4.43,0,0,1,.93-1.1l1.41.89a2.56,2.56,0,0,0-.63.68.66.66,0,0,0,.26,1l.24.15.86-1.38,1.39.87-.85,1.36,4.55,2.86-1.07,1.7Z"/>
      <path d="M16.51,33.89l0,0a3.84,3.84,0,0,1,4.73-6l0,0a3.84,3.84,0,0,1-4.73,6ZM20,29.42l0,0a1.88,1.88,0,0,0-2.69.25,1.82,1.82,0,0,0,.38,2.64l0,0a1.89,1.89,0,0,0,2.69-.25A1.82,1.82,0,0,0,20,29.42Z"/>
      <path d="M19.82,24.23l1.41-1.43,1,1a2.19,2.19,0,0,1,.47-2.71l1.5,1.48-.07.08c-.94,1-.94,2.1.27,3.29l1.87,1.84L24.88,29.2Z"/>
      <path d="M24.14,19.73l1.6-1.22.61.8a2.54,2.54,0,0,1,1-2.18,2.12,2.12,0,0,1,2.27-.32,2.92,2.92,0,0,1,1.17-2.31c1.19-.91,2.45-.74,3.49.61l2.81,3.67L35.46,20l-2.41-3.14c-.58-.76-1.21-.89-1.81-.43s-.67,1.13-.09,1.89l2.41,3.14L32,22.68l-2.41-3.14c-.58-.76-1.21-.89-1.81-.43s-.67,1.13-.09,1.89l2.41,3.14-1.6,1.22Z"/>
      <path d="M37,16.58v0c-.74-1.36,0-2.55,1.44-3.35a5,5,0,0,1,1.66-.57l-.06-.1c-.4-.73-1.07-.9-2-.42a5.23,5.23,0,0,0-1.54,1.27l-1.17-1.11a6.26,6.26,0,0,1,2.15-1.81A3.27,3.27,0,0,1,40,10a3.09,3.09,0,0,1,1.75,1.63l2,3.62L42,16.2l-.36-.68a2.73,2.73,0,0,1-1.46,1.81A2.19,2.19,0,0,1,37,16.58ZM40.85,14l-.17-.31a3.12,3.12,0,0,0-1.26.38c-.76.41-1.06,1-.76,1.52v0c.26.48.81.54,1.38.23C40.88,15.37,41.19,14.62,40.85,14Z"/>
      <path d="M44.57,12.73,43.29,9.62l-.78.32-.66-1.59L42.63,8l-.69-1.68,1.86-.77.69,1.68L46,6.63l.66,1.59-1.54.64,1.15,2.8c.18.43.45.56.86.39a2.05,2.05,0,0,0,.82-.61l.61,1.49a3,3,0,0,1-1.31,1A1.82,1.82,0,0,1,44.57,12.73Z"/>
      <path d="M47,3.57l2-.66.56,1.7-2,.66ZM47.87,6l1.91-.63L52,12.11l-1.91.63Z"/>
      <path d="M52.49,8.2v0a3.72,3.72,0,0,1,3-4.43A3.69,3.69,0,0,1,60,6.5v0A3.72,3.72,0,0,1,57,11,3.69,3.69,0,0,1,52.49,8.2ZM58,7V7A1.88,1.88,0,0,0,55.8,5.44a1.82,1.82,0,0,0-1.38,2.28v0a1.88,1.88,0,0,0,2.24,1.51A1.82,1.82,0,0,0,58,7Z"/>
      <path d="M61.32,2.77l2-.17.08,1a2.51,2.51,0,0,1,2-1.31A2.33,2.33,0,0,1,68,4.73l.38,4.58-2,.17L66,5.53c-.08-.95-.57-1.4-1.33-1.34s-1.21.59-1.13,1.54l.33,3.94-2,.17Z"/>
      <path d="M76.83,2.28,74,2,74.23.11l7.63.84-.21,1.87-2.8-.31L78,9.85l-2-.22Z"/>
      <path d="M81,6.65v0a3.53,3.53,0,0,1,4.22-2.85c2.31.51,3,2.54,2.54,4.51,0,.15-.09.33-.14.51L82.81,7.73a1.65,1.65,0,0,0,1.39,1.73A2.33,2.33,0,0,0,86,9.12l.9,1.24A3.75,3.75,0,0,1,81,6.65Zm5,.5a1.52,1.52,0,0,0-1.13-1.8,1.58,1.58,0,0,0-1.83,1.14Z"/>
      <path d="M89.05,8.53v0a3.64,3.64,0,0,1,4.74-2.23,3.49,3.49,0,0,1,2.27,2.07l-1.6.83A2.07,2.07,0,0,0,93.21,7.9a1.81,1.81,0,0,0-2.27,1.24v0a1.82,1.82,0,0,0,1,2.45,2.25,2.25,0,0,0,1.79-.17L94.47,13a3.57,3.57,0,0,1-3.17.25A3.62,3.62,0,0,1,89.05,8.53Z"/>
      <path d="M99.38,5.82l1.8.9L99.57,9.92a2.51,2.51,0,0,1,2.37-.08,2.33,2.33,0,0,1,1,3.44l-2.06,4.11-1.8-.9,1.78-3.54c.43-.85.25-1.49-.44-1.84a1.24,1.24,0,0,0-1.77.72l-1.78,3.54-1.8-.9Z"/>
      <path d="M106.08,12.24l1.67,1.13-.56.83a2.51,2.51,0,0,1,2.36.22,2.33,2.33,0,0,1,.52,3.53l-2.57,3.81-1.67-1.13L108,17.35c.53-.79.43-1.45-.2-1.88A1.24,1.24,0,0,0,106,16l-2.22,3.28-1.67-1.13Z"/>
      <path d="M110.73,19.79l0,0a3.84,3.84,0,0,1,5.76,5.08l0,0a3.84,3.84,0,0,1-5.76-5.08ZM115,23.57l0,0a1.89,1.89,0,0,0-.09-2.71,1.82,1.82,0,0,0-2.66.22l0,0a1.89,1.89,0,0,0,.09,2.71A1.82,1.82,0,0,0,115,23.57Z"/>
      <path d="M122.11,22l1.37,1.48L116.37,30,115,28.56Z"/>
      <path d="M120.12,28.84l0,0a3.84,3.84,0,0,1,4.64,6.12l0,0a3.84,3.84,0,0,1-4.65-6.12Zm3.43,4.55,0,0A1.89,1.89,0,0,0,124,30.7a1.82,1.82,0,0,0-2.65-.31l0,0a1.89,1.89,0,0,0-.44,2.67A1.82,1.82,0,0,0,123.55,33.39Z"/>
      <path d="M121.35,38.77l1.65-.13a4.62,4.62,0,0,0,.6,2.41,1.75,1.75,0,0,0,2.67.83l.3-.17a2.78,2.78,0,0,1-2.13-1.46,3.12,3.12,0,0,1,1.36-4.36h0A3.12,3.12,0,0,1,130.25,37a2.87,2.87,0,0,1,.19,2.52l.81-.45,1,1.76-4.8,2.67a3.81,3.81,0,0,1-2.88.57,4.16,4.16,0,0,1-2.32-2.21A6.73,6.73,0,0,1,121.35,38.77Zm7.11,1.89h0a1.73,1.73,0,0,0-1.68-3h0a1.62,1.62,0,0,0-.6,2.3A1.64,1.64,0,0,0,128.46,40.66Z"/>
      <path d="M135,47.42l.77,1.95-7.76.13c-1.54,0-2.26-.32-2.7-1.44a3.33,3.33,0,0,1-.2-1.84l1.6.09a1.82,1.82,0,0,0,.06.9.67.67,0,0,0,.69.48l5.6-5.2.78,2-3.9,3.28Z"/>
    </g>
    <path d="M106.93,35.6A52.37,52.37,0,1,0,102.07,114a57.38,57.38,0,0,0,9.15-9.15A52.37,52.37,0,0,0,106.93,35.6ZM73.75,114.65a41.17,41.17,0,1,1,38.08-44A41.16,41.16,0,0,1,73.75,114.65Z" style="fill: #f79420;fill-rule: evenodd"/>
    <path d="M70.71,112.68a39.15,39.15,0,1,1,2.89-.1h0Q72.15,112.68,70.71,112.68Zm.12-77.16q-1.4,0-2.82.1a38.07,38.07,0,1,0,5.51,75.93h0a38.07,38.07,0,0,0-2.7-76Z" style="fill: #f79420"/>
    <g>
      <path d="M47.79,67.8h-.21a1,1,0,0,0-.94.57l-1.41,3.48a1.85,1.85,0,0,0,.32,1.91,2.62,2.62,0,0,0,2,.88H69.93a2.62,2.62,0,0,0,2-.88,1.85,1.85,0,0,0,.32-1.91l-1.41-3.48a1,1,0,0,0-.94-.57H47.79Zm14.4,5.27a.33.33,0,0,1-.21.07H55.5a.32.32,0,0,1-.21-.07.11.11,0,0,1,0-.14l.62-.94a.94.94,0,0,1,.77-.31h4.16a.94.94,0,0,1,.77.31l.63.94A.11.11,0,0,1,62.19,73.07Z"/>
      <path d="M46.6,52.24V65.39A1.93,1.93,0,0,0,48,67.23h21.9a1.93,1.93,0,0,0,1.35-1.83V52.24a1.93,1.93,0,0,0-1.69-1.91H48.29A1.93,1.93,0,0,0,46.6,52.24Zm12.33-1.42a.4.4,0,1,1-.4.4A.4.4,0,0,1,58.93,50.81Zm10.48,1.25V65.57H48.46V52.06Z"/>
    </g>
    <g>
      <path d="M69.63,93.75h-.21a1,1,0,0,0-.94.57L67.06,97.8a1.85,1.85,0,0,0,.32,1.91,2.62,2.62,0,0,0,2,.88H91.77a2.62,2.62,0,0,0,2-.88,1.85,1.85,0,0,0,.32-1.91l-1.41-3.48a1,1,0,0,0-.94-.57H69.63ZM84,99a.33.33,0,0,1-.21.07H77.34a.32.32,0,0,1-.21-.07.11.11,0,0,1,0-.14l.62-.94a.94.94,0,0,1,.77-.31h4.16a.94.94,0,0,1,.77.31l.63.94A.11.11,0,0,1,84,99Z"/>
      <path d="M68.44,78.18V91.34a1.93,1.93,0,0,0,1.35,1.83H91.7a1.93,1.93,0,0,0,1.35-1.83V78.18a1.93,1.93,0,0,0-1.69-1.91H70.13A1.93,1.93,0,0,0,68.44,78.18Zm12.33-1.42a.4.4,0,1,1-.4.4A.4.4,0,0,1,80.77,76.76ZM91.25,78V91.52H70.3V78Z"/>
    </g>
    <g>
      <path d="M54.19,92.54a3.87,3.87,0,1,1,3.87-3.87A3.88,3.88,0,0,1,54.19,92.54Zm0-5.71A1.83,1.83,0,1,0,56,88.66,1.84,1.84,0,0,0,54.19,86.83Z"/>
      <g>
        <rect x="59.89" y="87.64" width="1.9" height="2.04"/>
        <rect x="63.7" y="87.64" width="1.9" height="2.04"/>
        <rect x="67.5" y="87.64" width="1.9" height="2.04"/>
      </g>
      <g>
        <rect x="53.17" y="81.05" width="2.04" height="1.9"/>
        <rect x="53.17" y="77.25" width="2.04" height="1.9"/>
        <rect x="53.17" y="73.44" width="2.04" height="1.9"/>
      </g>
    </g>
    <g>
      <path d="M86.77,63.26a3.87,3.87,0,1,1,3.87-3.87A3.88,3.88,0,0,1,86.77,63.26Zm0-5.71a1.83,1.83,0,1,0,1.83,1.83A1.84,1.84,0,0,0,86.77,57.55Z"/>
      <g>
        <rect x="85.75" y="72.71" width="2.04" height="1.9"/>
        <rect x="85.75" y="68.9" width="2.04" height="1.9"/>
        <rect x="85.75" y="65.1" width="2.04" height="1.9"/>
      </g>
      <g>
        <rect x="79.16" y="58.37" width="1.9" height="2.04"/>
        <rect x="75.35" y="58.37" width="1.9" height="2.04"/>
        <rect x="71.55" y="58.37" width="1.9" height="2.04"/>
      </g>
    </g>
  </g>
</svg>
